<svg width="54" height="54" viewBox="0 0 54 54" fill="none" xmlns="http://www.w3.org/2000/svg">
<g clip-path="url(#clip0_65_20369)">
<path d="M27 49.501C14.625 49.501 4.5 39.376 4.5 27.001C4.5 14.626 14.625 4.50098 27 4.50098C39.375 4.50098 49.5 14.626 49.5 27.001C49.5 39.376 39.375 49.501 27 49.501ZM27 6.75098C15.75 6.75098 6.75 15.751 6.75 27.001C6.75 38.251 15.75 47.251 27 47.251C38.25 47.251 47.25 38.251 47.25 27.001C47.25 15.751 38.25 6.75098 27 6.75098Z" fill="#EDE9DF"/>
<path d="M27 11.251C26.325 11.251 25.875 10.801 25.875 10.126V1.12598C25.875 0.450977 26.325 0.000976562 27 0.000976562C27.675 0.000976562 28.125 0.450977 28.125 1.12598V10.126C28.125 10.801 27.675 11.251 27 11.251Z" fill="#EDE9DF"/>
<path d="M27 11.251C26.325 11.251 25.875 10.801 25.875 10.126V1.12598C25.875 0.450977 26.325 0.000976562 27 0.000976562C27.675 0.000976562 28.125 0.450977 28.125 1.12598V10.126C28.125 10.801 27.675 11.251 27 11.251Z" fill="#EDE9DF"/>
<path d="M52.875 28.126H43.875C43.2 28.126 42.75 27.676 42.75 27.001C42.75 26.326 43.2 25.876 43.875 25.876H52.875C53.55 25.876 54 26.326 54 27.001C54 27.676 53.55 28.126 52.875 28.126Z" fill="#EDE9DF"/>
<path d="M27 54.001C26.325 54.001 25.875 53.551 25.875 52.876V43.876C25.875 43.201 26.325 42.751 27 42.751C27.675 42.751 28.125 43.201 28.125 43.876V52.876C28.125 53.551 27.675 54.001 27 54.001Z" fill="#EDE9DF"/>
<path d="M10.125 28.126H1.125C0.45 28.126 0 27.676 0 27.001C0 26.326 0.45 25.876 1.125 25.876H10.125C10.8 25.876 11.25 26.326 11.25 27.001C11.25 27.676 10.8 28.126 10.125 28.126Z" fill="#EDE9DF"/>
<path d="M27 33.751C23.175 33.751 20.25 30.826 20.25 27.001C20.25 23.176 23.175 20.251 27 20.251C30.825 20.251 33.75 23.176 33.75 27.001C33.75 30.826 30.825 33.751 27 33.751ZM27 22.501C24.525 22.501 22.5 24.526 22.5 27.001C22.5 29.476 24.525 31.501 27 31.501C29.475 31.501 31.5 29.476 31.5 27.001C31.5 24.526 29.475 22.501 27 22.501Z" fill="#EDE9DF"/>
</g>
<defs>
<clipPath id="clip0_65_20369">
<rect width="54" height="54" fill="white" transform="translate(0 0.000976562)"/>
</clipPath>
</defs>
</svg>
