<svg width="39" height="54" viewBox="0 0 39 54" fill="none" xmlns="http://www.w3.org/2000/svg">
<g clip-path="url(#clip0_65_20351)">
<path d="M27.0001 8.8049C27.6457 8.8049 28.174 8.27664 28.174 7.63099V7.04403C28.174 6.39838 27.6457 5.87012 27.0001 5.87012C26.3544 5.87012 25.8262 6.39838 25.8262 7.04403V7.63099C25.8262 8.27664 26.3544 8.8049 27.0001 8.8049Z" fill="#EDE9DF"/>
<path d="M27.0001 45.1963C26.3544 45.1963 25.8262 45.7245 25.8262 46.3702V46.9572C25.8262 47.6028 26.3544 48.1311 27.0001 48.1311C27.6457 48.1311 28.174 47.6028 28.174 46.9572V46.3702C28.174 45.7245 27.6457 45.1963 27.0001 45.1963Z" fill="#EDE9DF"/>
<path d="M7.6305 25.8271H7.04354C6.39789 25.8271 5.86963 26.3554 5.86963 27.0011C5.86963 27.6467 6.39789 28.175 7.04354 28.175H7.6305C8.27615 28.175 8.80441 27.6467 8.80441 27.0011C8.80441 26.3554 8.27615 25.8271 7.6305 25.8271Z" fill="#EDE9DF"/>
<path d="M13.7349 12.0924C13.2653 11.6228 12.561 11.6228 12.0914 12.0924C11.6219 12.562 11.6219 13.2663 12.0914 13.7359L12.5023 14.1468C12.7371 14.3815 13.0306 14.4989 13.324 14.4989C13.6175 14.4989 13.911 14.3815 14.1458 14.1468C14.6153 13.6772 14.6153 12.9728 14.1458 12.5033L13.7349 12.0924Z" fill="#EDE9DF"/>
<path d="M12.5023 39.8551L12.0914 40.266C11.6219 40.7355 11.6219 41.4399 12.0914 41.9095C12.3262 42.1442 12.6197 42.2616 12.9132 42.2616C13.2066 42.2616 13.5001 42.1442 13.7349 41.9095L14.1458 41.4986C14.6153 41.029 14.6153 40.3247 14.1458 39.8551C13.6762 39.3855 12.9719 39.3855 12.5023 39.8551Z" fill="#EDE9DF"/>
<path d="M28.174 26.5313V15.8487C28.174 15.2031 27.6457 14.6748 27.0001 14.6748C26.3544 14.6748 25.8262 15.2031 25.8262 15.8487V27.0009C25.8262 27.2944 25.9436 27.5878 26.1783 27.8226L39.0327 40.677C39.2675 40.9118 39.561 41.0292 39.8544 41.0292C40.1479 41.0292 40.4414 40.9118 40.6762 40.677C41.1457 40.2074 41.1457 39.5031 40.6762 39.0335L28.174 26.5313Z" fill="#EDE9DF"/>
<path d="M27 0.000976562C12.0913 0.000976562 0 12.0923 0 27.001C0 41.9097 12.0913 54.001 27 54.001C41.9087 54.001 54 41.9097 54 27.001C54 12.0923 41.9087 0.000976562 27 0.000976562ZM27 51.6531C13.3826 51.6531 2.34783 40.6184 2.34783 27.001C2.34783 13.3836 13.3826 2.3488 27 2.3488C40.6174 2.3488 51.6522 13.3836 51.6522 27.001C51.6522 40.6184 40.6174 51.6531 27 51.6531Z" fill="#EDE9DF"/>
</g>
<defs>
<clipPath id="clip0_65_20351">
<rect width="54" height="54" fill="white" transform="translate(0 0.000976562)"/>
</clipPath>
</defs>
</svg>
