<svg width="72" height="71" viewBox="0 0 72 71" fill="none" xmlns="http://www.w3.org/2000/svg">
<path d="M0 1.61212V36.5048C0 36.5048 34.586 27.9469 0 70.923C0 70.923 70.7317 -12.5212 0 1.61212Z" fill="url(#paint0_linear_65_20478)"/>
<path d="M69.7145 70.9231H34.8064C34.8064 70.9231 44.148 36.6405 0 70.9231C0 70.9231 87.0583 -23.0787 69.7145 70.9231Z" fill="url(#paint1_linear_65_20478)"/>
<path d="M0 1.61212V36.5048C0 36.5048 34.586 27.9469 0 70.923C0 70.923 70.7317 -12.5212 0 1.61212Z" fill="#EF0000"/>
<path d="M69.7145 70.9231H34.8064C34.8064 70.9231 44.148 36.6405 0 70.9231C0 70.9231 87.0583 -23.0787 69.7145 70.9231Z" fill="#EF0000"/>
<defs>
<linearGradient id="paint0_linear_65_20478" x1="0" y1="35.4541" x2="31.4325" y2="35.4541" gradientUnits="userSpaceOnUse">
<stop stop-color="white"/>
<stop offset="1"/>
</linearGradient>
<linearGradient id="paint1_linear_65_20478" x1="-16.0045" y1="50.0282" x2="72.0032" y2="50.0282" gradientUnits="userSpaceOnUse">
<stop stop-color="white"/>
<stop offset="1"/>
</linearGradient>
</defs>
</svg>
