<svg width="14" height="12" viewBox="0 0 14 12" fill="none" xmlns="http://www.w3.org/2000/svg">
<path d="M3.62663 1.33302C3.62645 1.68665 3.48581 2.02571 3.23563 2.27564C2.98546 2.52556 2.64625 2.66587 2.29263 2.66569C1.93901 2.66551 1.59994 2.52487 1.35001 2.27469C1.10009 2.02452 0.959784 1.68531 0.959961 1.33169C0.960138 0.978068 1.10078 0.639 1.35096 0.389076C1.60113 0.139153 1.94034 -0.00115321 2.29396 -0.000976396C2.64758 -0.000799585 2.98665 0.139846 3.23657 0.390019C3.4865 0.640193 3.6268 0.979401 3.62663 1.33302ZM3.66663 3.65302H0.999961V11.9997H3.66663V3.65302ZM7.87996 3.65302H5.22663V11.9997H7.85329V7.61969C7.85329 5.17969 11.0333 4.95302 11.0333 7.61969V11.9997H13.6666V6.71302C13.6666 2.59969 8.95996 2.75302 7.85329 4.77302L7.87996 3.65302Z" fill="#11171B"/>
</svg>
