<svg width="1212" height="213" viewBox="0 0 1212 213" fill="none" xmlns="http://www.w3.org/2000/svg">
<g filter="url(#filter0_b_65_20468)">
<path d="M18.4014 0V131.137L102.173 57.9616H126.765L62.3603 113.879L131.195 209.025H108.08L48.3321 126.766L18.4582 151.631V209.025H0V0H18.4582H18.4014Z" fill="#EDE9DF"/>
<path d="M154.14 159.069C156.014 166.165 158.968 172.58 163.057 178.257C167.146 183.934 172.314 188.589 178.562 192.279C184.809 195.969 192.306 197.842 201.109 197.842C214.57 197.842 225.133 194.323 232.744 187.283C240.354 180.244 245.636 170.877 248.533 159.182H266.991C263.072 176.383 255.916 189.611 245.466 198.978C235.016 208.345 220.249 213 201.109 213C189.182 213 178.903 210.899 170.213 206.698C161.523 202.497 154.424 196.764 148.972 189.44C143.52 182.117 139.43 173.659 136.818 163.951C134.205 154.243 132.842 144.082 132.842 133.352C132.842 123.418 134.149 113.653 136.818 104.059C139.43 94.5219 143.52 85.9498 148.972 78.4562C154.424 70.9626 161.523 64.8883 170.213 60.29C178.903 55.6917 189.182 53.4209 201.109 53.4209C213.036 53.4209 223.543 55.862 232.119 60.7441C240.695 65.6263 247.681 72.0413 253.076 79.9322C258.415 87.8232 262.277 96.9063 264.662 107.125C267.048 117.343 267.956 127.732 267.616 138.291H151.357C151.357 144.933 152.266 151.802 154.14 158.898V159.069ZM245.522 102.697C243.251 96.2818 240.127 90.5481 235.981 85.5524C231.892 80.5567 226.894 76.5828 221.044 73.574C215.194 70.5653 208.549 69.0325 201.109 69.0325C193.669 69.0325 186.74 70.5653 180.89 73.574C175.041 76.5828 170.043 80.6134 165.953 85.5524C161.864 90.5481 158.57 96.2818 156.128 102.81C153.686 109.339 152.096 116.038 151.3 122.85H249.101C248.93 115.81 247.681 109.112 245.466 102.64L245.522 102.697Z" fill="#EDE9DF"/>
<path d="M303.624 57.9614V93.3855H304.192C308.906 81.0665 316.175 71.6428 326.001 65.0008C335.883 58.3587 347.639 55.35 361.27 55.9177V74.3677C352.865 73.9703 345.254 75.1057 338.439 77.7171C331.623 80.3285 325.717 84.1321 320.719 89.0142C315.721 93.8964 311.859 99.6869 309.133 106.442C306.407 113.198 305.044 120.521 305.044 128.526V209.025H286.585V58.0181H303.567L303.624 57.9614Z" fill="#EDE9DF"/>
<path d="M396.426 57.9626V84.0197H396.994C400.515 74.8231 406.762 67.4998 415.736 61.9364C424.709 56.373 434.592 53.5913 445.326 53.5913C456.06 53.5913 464.693 54.9538 471.849 57.6787C478.948 60.4036 484.684 64.264 489.001 69.2597C493.26 74.2554 496.327 80.3297 498.088 87.5394C499.848 94.7491 500.7 102.867 500.7 111.837V209.026H482.242V114.789C482.242 108.374 481.674 102.356 480.482 96.7928C479.289 91.2294 477.244 86.404 474.348 82.3166C471.395 78.2292 467.476 74.9934 462.478 72.6658C457.48 70.3383 451.289 69.1461 443.906 69.1461C436.523 69.1461 429.878 70.4518 424.141 73.12C418.405 75.7314 413.521 79.3646 409.489 83.9629C405.456 88.5613 402.389 94.0111 400.117 100.369C397.846 106.727 396.653 113.597 396.483 120.977V209.083H378.024V58.0761H396.483L396.426 57.9626Z" fill="#EDE9DF"/>
<path d="M533.47 81.3502C536.593 74.9353 540.853 69.6557 546.192 65.5683C551.53 61.4809 557.834 58.4721 565.104 56.4852C572.317 54.5551 580.325 53.5332 589.128 53.5332C595.773 53.5332 602.418 54.1577 609.063 55.4066C615.708 56.6555 621.671 59.0398 626.897 62.5595C632.178 66.0792 636.438 71.0182 639.789 77.3196C643.083 83.6778 644.787 91.9093 644.787 102.071V182.286C644.787 189.723 648.422 193.413 655.635 193.413C657.793 193.413 659.724 193.016 661.484 192.221V207.719C659.326 208.116 657.452 208.4 655.748 208.57C654.101 208.798 652 208.854 649.444 208.854C644.73 208.854 640.981 208.23 638.199 206.981C635.359 205.732 633.144 203.915 631.61 201.588C630.02 199.26 628.998 196.479 628.544 193.243C628.032 190.007 627.805 186.487 627.805 182.57H627.237C623.943 187.452 620.536 191.767 617.128 195.57C613.72 199.374 609.915 202.553 605.712 205.108C601.509 207.662 596.739 209.592 591.343 210.955C585.948 212.317 579.587 212.998 572.147 212.998C565.104 212.998 558.516 212.147 552.382 210.501C546.248 208.854 540.853 206.243 536.253 202.61C531.652 198.976 528.074 194.435 525.405 188.871C522.735 183.308 521.429 176.723 521.429 169.116C521.429 158.557 523.758 150.325 528.472 144.364C533.186 138.403 539.376 133.862 547.044 130.74C554.768 127.617 563.457 125.403 573.112 124.154C582.767 122.905 592.593 121.657 602.532 120.521C606.45 120.124 609.858 119.67 612.755 119.045C615.708 118.477 618.15 117.456 620.081 115.98C622.012 114.504 623.546 112.517 624.625 109.962C625.704 107.407 626.215 104.115 626.215 100.027C626.215 93.7827 625.193 88.6735 623.148 84.6428C621.103 80.669 618.264 77.4899 614.629 75.1056C610.994 72.778 606.791 71.1317 602.021 70.2802C597.25 69.4286 592.081 68.9745 586.629 68.9745C574.93 68.9745 565.331 71.7562 557.948 77.3196C550.508 82.883 546.646 91.7958 546.248 104.115H527.79C528.358 95.3155 530.232 87.7084 533.356 81.2935L533.47 81.3502ZM625.704 126.425C624.511 128.582 622.296 130.115 618.945 131.137C615.651 132.102 612.698 132.783 610.142 133.181C602.304 134.543 594.296 135.792 586.004 136.814C577.712 137.893 570.159 139.482 563.287 141.639C556.471 143.797 550.849 146.862 546.476 150.836C542.102 154.867 539.887 160.544 539.887 167.98C539.887 172.692 540.796 176.836 542.67 180.413C544.545 184.046 546.987 187.168 550.11 189.78C553.234 192.391 556.869 194.435 560.958 195.797C565.047 197.16 569.25 197.841 573.567 197.841C580.609 197.841 587.311 196.762 593.785 194.605C600.203 192.448 605.826 189.326 610.596 185.238C615.367 181.151 619.172 176.155 622.012 170.308C624.852 164.461 626.272 157.819 626.272 150.382V126.368H625.704V126.425Z" fill="#EDE9DF"/>
<path d="M716.745 0V208.968H675.172V0H716.745Z" fill="#EDE9DF"/>
<path d="M741.965 104.172C742.533 94.4072 744.975 86.3459 749.291 79.8742C753.608 73.4593 759.06 68.2933 765.705 64.3762C772.35 60.4591 779.79 57.6774 788.082 56.0311C796.374 54.3847 804.723 53.5332 813.128 53.5332C820.739 53.5332 828.463 54.0441 836.244 55.1228C844.025 56.2014 851.181 58.3018 857.598 61.4242C864.016 64.5465 869.298 68.8609 873.387 74.4244C877.476 79.9878 879.521 87.3678 879.521 96.5077V175.247C879.521 182.059 879.919 188.588 880.714 194.832C881.509 201.077 882.872 205.732 884.803 208.854H842.661C841.866 206.527 841.242 204.142 840.787 201.701C840.276 199.26 839.935 196.762 839.765 194.208C833.12 201.02 825.339 205.846 816.366 208.57C807.392 211.295 798.191 212.658 788.82 212.658C781.607 212.658 774.849 211.806 768.602 210.046C762.354 208.287 756.902 205.562 752.188 201.872C747.474 198.182 743.839 193.47 741.227 187.85C738.614 182.229 737.251 175.474 737.251 167.64C737.251 159.068 738.784 151.971 741.795 146.408C744.805 140.845 748.723 136.417 753.494 133.067C758.265 129.775 763.717 127.277 769.908 125.63C776.042 123.984 782.232 122.678 788.48 121.657C794.727 120.691 800.861 119.897 806.938 119.329C813.015 118.761 818.353 117.853 823.067 116.718C827.781 115.582 831.473 113.822 834.199 111.608C836.925 109.394 838.175 106.102 838.004 101.787C838.004 97.3024 837.266 93.726 835.789 91.1146C834.313 88.5032 832.382 86.4027 829.94 84.9835C827.497 83.5075 824.658 82.5424 821.42 82.0315C818.183 81.5773 814.719 81.2935 811.027 81.2935C802.849 81.2935 796.374 83.0533 791.717 86.573C787.003 90.0927 784.277 95.94 783.539 104.115H741.965V104.172ZM838.004 134.884C836.244 136.473 834.029 137.665 831.416 138.517C828.804 139.425 825.964 140.107 822.897 140.731C819.887 141.299 816.706 141.81 813.412 142.207C810.118 142.604 806.767 143.059 803.473 143.683C800.35 144.251 797.283 145.046 794.273 146.011C791.263 146.976 788.593 148.338 786.378 149.984C784.106 151.631 782.346 153.731 780.983 156.286C779.62 158.84 778.938 162.02 778.938 165.937C778.938 169.854 779.62 172.749 780.983 175.304C782.346 177.858 784.22 179.845 786.549 181.321C788.877 182.797 791.603 183.819 794.727 184.387C797.851 184.954 801.088 185.295 804.382 185.295C812.56 185.295 818.921 183.933 823.408 181.208C827.895 178.483 831.189 175.19 833.347 171.387C835.505 167.583 836.812 163.723 837.323 159.806C837.834 155.888 838.061 152.766 838.061 150.439V134.941L838.004 134.884Z" fill="#EDE9DF"/>
<path d="M947.499 0V76.1278H948.067C953.122 68.2936 960.051 62.6167 968.684 58.9834C977.373 55.3502 986.404 53.5903 995.775 53.5903C1003.39 53.5903 1010.88 55.1799 1018.32 58.2454C1025.76 61.3677 1032.41 66.1364 1038.37 72.6081C1044.33 79.023 1049.16 87.3114 1052.85 97.3595C1056.54 107.408 1058.42 119.386 1058.42 133.238C1058.42 147.09 1056.54 159.068 1052.85 169.116C1049.16 179.164 1044.33 187.396 1038.37 193.868C1032.41 200.282 1025.71 205.108 1018.32 208.23C1010.88 211.353 1003.39 212.885 995.775 212.885C984.643 212.885 974.704 211.125 965.901 207.606C957.098 204.086 950.453 198.125 945.966 189.78H945.398V209.082H905.869V0H947.443H947.499ZM1014.86 115.015C1013.49 109.168 1011.34 104.002 1008.44 99.5168C1005.49 95.032 1001.85 91.4555 997.479 88.8441C993.105 86.2327 987.767 84.8703 981.519 84.8703C975.272 84.8703 970.217 86.176 965.73 88.8441C961.244 91.4555 957.552 95.032 954.599 99.5168C951.645 104.002 949.544 109.168 948.181 115.015C946.818 120.862 946.136 126.993 946.136 133.465C946.136 139.937 946.818 145.784 948.181 151.631C949.544 157.478 951.702 162.644 954.599 167.129C957.495 171.614 961.244 175.19 965.73 177.802C970.217 180.413 975.499 181.776 981.519 181.776C987.54 181.776 993.105 180.47 997.479 177.802C1001.85 175.19 1005.54 171.614 1008.44 167.129C1011.34 162.644 1013.49 157.478 1014.86 151.631C1016.22 145.784 1016.9 139.71 1016.9 133.465C1016.9 127.22 1016.22 120.862 1014.86 115.015Z" fill="#EDE9DF"/>
<path d="M1113.97 171.331C1115.84 174.567 1118.23 177.178 1121.12 179.222C1124.08 181.266 1127.43 182.798 1131.23 183.764C1135.04 184.729 1139.01 185.24 1143.1 185.24C1146.06 185.24 1149.12 184.899 1152.3 184.218C1155.54 183.537 1158.44 182.458 1161.11 180.982C1163.72 179.506 1165.93 177.576 1167.7 175.135C1169.46 172.694 1170.31 169.628 1170.31 165.938C1170.31 159.693 1166.16 155.038 1157.87 151.916C1149.58 148.794 1137.99 145.671 1123.17 142.549C1117.09 141.187 1111.18 139.597 1105.45 137.724C1099.71 135.85 1094.54 133.409 1090.06 130.4C1085.57 127.392 1081.94 123.588 1079.21 118.99C1076.48 114.391 1075.12 108.771 1075.12 102.186C1075.12 92.4216 1076.99 84.4171 1080.8 78.1725C1084.6 71.9278 1089.6 66.9889 1095.91 63.4124C1102.15 59.7792 1109.2 57.2813 1116.98 55.8053C1124.76 54.3293 1132.77 53.5913 1141 53.5913C1149.24 53.5913 1157.13 54.3861 1164.86 55.9189C1172.58 57.5084 1179.45 60.1198 1185.47 63.8098C1191.49 67.4998 1196.55 72.4388 1200.58 78.5699C1204.55 84.701 1206.94 92.4784 1207.74 101.845H1168.21C1167.64 93.8408 1164.57 88.4477 1159.12 85.6093C1153.67 82.7708 1147.19 81.3516 1139.81 81.3516C1137.48 81.3516 1134.92 81.5219 1132.2 81.8057C1129.47 82.0896 1126.97 82.714 1124.76 83.6791C1122.49 84.6442 1120.61 86.0634 1119.08 87.9368C1117.49 89.8102 1116.75 92.3081 1116.75 95.3736C1116.75 99.0636 1118.11 102.129 1120.84 104.457C1123.57 106.784 1127.14 108.714 1131.52 110.134C1135.89 111.553 1140.94 112.915 1146.62 114.108C1152.3 115.3 1158.04 116.549 1163.89 117.911C1169.91 119.274 1175.82 120.92 1181.61 122.907C1187.35 124.837 1192.51 127.448 1197 130.684C1201.49 133.92 1205.12 137.894 1207.85 142.663C1210.57 147.431 1211.94 153.335 1211.94 160.375C1211.94 170.309 1209.95 178.654 1205.92 185.41C1201.89 192.165 1196.72 197.559 1190.24 201.646C1183.82 205.733 1176.44 208.629 1168.15 210.275C1159.86 211.921 1151.4 212.773 1142.82 212.773C1134.24 212.773 1125.44 211.921 1117.03 210.161C1108.63 208.402 1101.19 205.449 1094.66 201.362C1088.13 197.275 1082.73 191.882 1078.58 185.126C1074.38 178.37 1072.11 169.969 1071.71 159.807H1111.24C1111.24 164.292 1112.15 168.152 1114.02 171.388L1113.97 171.331Z" fill="#EDE9DF"/>
</g>
<defs>
<filter id="filter0_b_65_20468" x="-20" y="-20" width="1251.94" height="253" filterUnits="userSpaceOnUse" color-interpolation-filters="sRGB">
<feFlood flood-opacity="0" result="BackgroundImageFix"/>
<feGaussianBlur in="BackgroundImageFix" stdDeviation="10"/>
<feComposite in2="SourceAlpha" operator="in" result="effect1_backgroundBlur_65_20468"/>
<feBlend mode="normal" in="SourceGraphic" in2="effect1_backgroundBlur_65_20468" result="shape"/>
</filter>
</defs>
</svg>
