<svg width="54" height="54" viewBox="0 0 54 54" fill="none" xmlns="http://www.w3.org/2000/svg">
<g clip-path="url(#clip0_65_20389)">
<path d="M53.1 52.201H4.5V0.900977C4.5 0.403277 4.0977 0.000976562 3.6 0.000976562C3.1023 0.000976562 2.7 0.403277 2.7 0.900977V3.60098H0.9C0.4023 3.60098 0 4.00328 0 4.50098C0 4.99868 0.4023 5.40098 0.9 5.40098H2.7V10.801H0.9C0.4023 10.801 0 11.2033 0 11.701C0 12.1987 0.4023 12.601 0.9 12.601H2.7V18.001H0.9C0.4023 18.001 0 18.4033 0 18.901C0 19.3987 0.4023 19.801 0.9 19.801H2.7V25.201H0.9C0.4023 25.201 0 25.6033 0 26.101C0 26.5987 0.4023 27.001 0.9 27.001H2.7V32.401H0.9C0.4023 32.401 0 32.8033 0 33.301C0 33.7987 0.4023 34.201 0.9 34.201H2.7V39.601H0.9C0.4023 39.601 0 40.0033 0 40.501C0 40.9987 0.4023 41.401 0.9 41.401H2.7V46.801H0.9C0.4023 46.801 0 47.2033 0 47.701C0 48.1987 0.4023 48.601 0.9 48.601H2.7V52.201C2.7 53.1937 3.5073 54.001 4.5 54.001H53.1C53.5977 54.001 54 53.5987 54 53.101C54 52.6033 53.5977 52.201 53.1 52.201Z" fill="#EDE9DF"/>
<path d="M14.9698 18.9512C15.2335 18.998 15.4621 19.1582 15.5944 19.3904L20.2303 27.5066L21.3274 25.8011L16.1083 16.6742C15.9652 16.424 15.7303 16.2584 15.4468 16.208C15.1678 16.1585 14.8816 16.2359 14.6656 16.4186L6.29834 23.5034V25.8605L14.2309 19.1492C14.4352 18.9773 14.7052 18.9026 14.968 18.9503L14.9698 18.9512Z" fill="#EDE9DF"/>
<path d="M53.623 31.6725C53.4295 31.5312 53.1919 31.4763 52.9552 31.5105C52.7167 31.5483 52.5079 31.6761 52.3666 31.8705L47.323 39.1146C47.1709 39.3333 46.9297 39.4728 46.6651 39.4971C46.4023 39.525 46.1377 39.4251 45.9487 39.2379L40.2679 33.5643C39.9205 33.2178 39.3706 33.1908 38.9899 33.5013L30.7747 40.2243C30.5686 40.3926 30.3004 40.4574 30.0412 40.4133C29.7802 40.3647 29.5543 40.2054 29.4229 39.975L24.3442 31.083L23.248 32.7894L28.891 42.6534C29.0323 42.9 29.2645 43.0647 29.5453 43.1169C29.8261 43.1718 30.1006 43.098 30.322 42.9171L38.9143 35.8881C39.2707 35.5947 39.7936 35.6208 40.1212 35.9484L46.0999 41.9334C46.3015 42.1368 46.5733 42.2313 46.855 42.2106C47.1394 42.1863 47.3878 42.0441 47.5525 41.811L53.8219 32.9424C54.1162 32.5374 54.0343 31.9839 53.6482 31.6878C53.6401 31.6824 53.632 31.6761 53.6248 31.6707L53.623 31.6725Z" fill="#EDE9DF"/>
<path d="M13.4579 32.4014C13.7171 32.4077 13.9619 32.5256 14.1275 32.7245L17.4332 36.6872C17.5898 36.8744 17.8076 36.9716 18.0614 36.9581C18.3053 36.9428 18.5204 36.8168 18.6509 36.6116L26.0183 25.1465C26.2577 24.7721 26.7338 24.629 27.1406 24.8108L33.9518 27.8393C34.2965 27.9932 34.7051 27.8654 34.904 27.5441L41.3534 17.0618C41.5874 16.682 42.0644 16.5326 42.4739 16.7063L47.4752 18.8465C47.8424 19.0004 48.2699 18.8465 48.4499 18.4892L53.9057 7.6019C54.0119 7.3877 54.0299 7.14381 53.9534 6.91521C53.8769 6.68751 53.7158 6.50301 53.5007 6.39591C53.0552 6.17541 52.517 6.35541 52.2956 6.79821L47.6489 16.0466C47.4356 16.4723 46.928 16.6559 46.4897 16.4696L41.6396 14.3888C41.2913 14.2403 40.8953 14.3672 40.6964 14.6867L34.2551 25.151C34.0184 25.5335 33.5378 25.6865 33.1229 25.502L26.3567 22.4969C26.0138 22.3439 25.616 22.4636 25.4135 22.7786L18.5672 33.4184C18.4124 33.6596 18.1514 33.8126 17.8661 33.8297C17.5781 33.8405 17.3027 33.728 17.1191 33.5075L14.0852 29.8625C13.8935 29.633 13.6505 29.5934 13.5218 29.5898C13.3517 29.5835 13.1456 29.6159 12.9449 29.8355L6.29932 37.0886V39.7463L12.773 32.6921C12.9485 32.5004 13.2041 32.4059 13.457 32.4005L13.4579 32.4014Z" fill="#EDE9DF"/>
</g>
<defs>
<clipPath id="clip0_65_20389">
<rect width="54" height="54" fill="white" transform="translate(0 0.000976562)"/>
</clipPath>
</defs>
</svg>
